<svg aria-hidden="true" style="position: absolute; width: 0; height: 0; overflow: hidden;" version="1.1" xmlns="http://www.w3.org/2000/svg" xmlns:xlink="http://www.w3.org/1999/xlink">
    <defs>
        <symbol id="icon-clock" viewBox="0 0 24 24">
            <title>clock</title>
            <path d="M12 1c-6.1 0-11 4.9-11 11s4.9 11 11 11 11-4.9 11-11-4.9-11-11-11zM12 21c-5 0-9-4-9-9s4-9 9-9c5 0 9 4 9 9s-4 9-9 9z"></path>
            <path d="M16.4 13.1l-3.4-1.7v-5.4c0-0.6-0.4-1-1-1s-1 0.4-1 1v6c0 0.4 0.2 0.7 0.6 0.9l4 2c0.1 0.1 0.2 0.1 0.4 0.1 0.4 0 0.7-0.2 0.9-0.6s0-1-0.5-1.3z"></path>
        </symbol>
        <symbol id="icon-flag" viewBox="0 0 24 24">
            <title>flag</title>
            <path d="M20.4 2.1c-0.4-0.2-0.8-0.1-1.1 0.2 0 0-0.9 0.7-3.3 0.7-1.3 0-2.4-0.5-3.6-0.9-1.3-0.6-2.7-1.1-4.4-1.1-3.2 0-4.5 1.1-4.7 1.3s-0.3 0.4-0.3 0.7v19c0 0.6 0.4 1 1 1s1-0.4 1-1v-6.5c0.4-0.2 1.4-0.5 3-0.5 1.3 0 2.4 0.5 3.6 0.9 1.3 0.5 2.7 1.1 4.4 1.1 3.2 0 4.5-1.1 4.7-1.3s0.3-0.4 0.3-0.7v-12c0-0.4-0.2-0.7-0.6-0.9zM19 14.5c-0.4 0.2-1.4 0.5-3 0.5-1.3 0-2.4-0.5-3.6-0.9-1.3-0.6-2.7-1.1-4.4-1.1-1.3 0-2.3 0.2-3 0.4v-9.9c0.4-0.2 1.4-0.5 3-0.5 1.3 0 2.4 0.5 3.6 0.9 1.3 0.6 2.7 1.1 4.4 1.1 1.3 0 2.3-0.2 3-0.4v9.9z"></path>
        </symbol>
        <symbol id="icon-tag" viewBox="0 0 24 24">
            <title>tag</title>
            <path d="M21.3 9.9l-8.6-8.6c-0.2-0.2-0.4-0.3-0.7-0.3h-10c-0.6 0-1 0.4-1 1v10c0 0.3 0.1 0.5 0.3 0.7l8.6 8.6c0.6 0.6 1.4 0.9 2.1 0.9 0.8 0 1.5-0.3 2.1-0.9l7.2-7.2c0 0 0 0 0 0 1.2-1.2 1.2-3 0-4.2zM19.9 12.7l-7.2 7.2c-0.4 0.4-1 0.4-1.4 0l-8.3-8.3v-8.6h8.6l8.3 8.3c0.4 0.4 0.4 1 0 1.4z"></path>
            <path d="M6.3 6.3c-0.2 0.2-0.3 0.4-0.3 0.7s0.1 0.5 0.3 0.7c0.2 0.2 0.4 0.3 0.7 0.3s0.5-0.1 0.7-0.3c0.2-0.2 0.3-0.4 0.3-0.7s-0.1-0.5-0.3-0.7c-0.4-0.4-1-0.4-1.4 0z"></path>
        </symbol>
        <symbol id="icon-clipboard" viewBox="0 0 24 24">
            <title>clipboard</title>
            <path d="M18 3h-1c0-1.1-0.9-2-2-2h-6c-1.1 0-2 0.9-2 2h-1c-1.7 0-3 1.3-3 3v14c0 1.7 1.3 3 3 3h12c1.7 0 3-1.3 3-3v-14c0-1.7-1.3-3-3-3zM9 3h6v2h-6v-1c0 0 0 0 0 0s0 0 0 0v-1zM19 20c0 0.6-0.4 1-1 1h-12c-0.6 0-1-0.4-1-1v-14c0-0.6 0.4-1 1-1h1c0 1.1 0.9 2 2 2h6c1.1 0 2-0.9 2-2h1c0.6 0 1 0.4 1 1v14z"></path>
        </symbol>
        <symbol id="icon-map-pin" viewBox="0 0 24 24">
            <title>map-pin</title>
            <path d="M12 0c-5.5 0-10 4.5-10 10 0 7.4 9.1 13.6 9.4 13.8 0.2 0.1 0.4 0.2 0.6 0.2s0.4-0.1 0.6-0.2c0.3-0.2 9.4-6.4 9.4-13.8 0-5.5-4.5-10-10-10zM12 21.8c-1.9-1.4-8-6.4-8-11.8 0-4.4 3.6-8 8-8s8 3.6 8 8c0 5.4-6.1 10.4-8 11.8z"></path>
            <path d="M12 6c-2.2 0-4 1.8-4 4s1.8 4 4 4c2.2 0 4-1.8 4-4s-1.8-4-4-4zM12 12c-1.1 0-2-0.9-2-2s0.9-2 2-2c1.1 0 2 0.9 2 2s-0.9 2-2 2z"></path>
        </symbol>
        <symbol id="icon-shuffle" viewBox="0 0 24 24">
            <title>shuffle</title>
            <path d="M21.9 2.6c-0.1-0.2-0.3-0.4-0.5-0.5-0.1-0.1-0.3-0.1-0.4-0.1h-5c-0.6 0-1 0.4-1 1s0.4 1 1 1h2.6l-15.3 15.3c-0.4 0.4-0.4 1 0 1.4 0.2 0.2 0.4 0.3 0.7 0.3s0.5-0.1 0.7-0.3l15.3-15.3v2.6c0 0.6 0.4 1 1 1s1-0.4 1-1v-5c0-0.1 0-0.3-0.1-0.4z"></path>
            <path d="M21 15c-0.6 0-1 0.4-1 1v2.6l-4.3-4.3c-0.4-0.4-1-0.4-1.4 0s-0.4 1 0 1.4l4.3 4.3h-2.6c-0.6 0-1 0.4-1 1s0.4 1 1 1h5c0.1 0 0.3 0 0.4-0.1 0.2-0.1 0.4-0.3 0.5-0.5 0.1-0.1 0.1-0.3 0.1-0.4v-5c0-0.6-0.4-1-1-1z"></path>
            <path d="M8.3 9.7c0.2 0.2 0.4 0.3 0.7 0.3s0.5-0.1 0.7-0.3c0.4-0.4 0.4-1 0-1.4l-5-5c-0.4-0.4-1-0.4-1.4 0s-0.4 1 0 1.4l5 5z"></path>
        </symbol>
        <symbol id="icon-send" viewBox="0 0 24 24">
            <title>Post Recipe</title>
            <path d="M23 1.9c0-0.1 0-0.2-0.1-0.3 0 0 0-0.1 0-0.1 0-0.1-0.1-0.2-0.2-0.3s-0.2-0.1-0.3-0.2c0 0-0.1 0-0.1 0-0.1 0-0.2 0-0.3-0.1 0 0.1 0 0.1 0 0.1-0.1 0-0.2 0-0.3 0.1l-20 7c-0.4 0.1-0.7 0.4-0.7 0.9 0 0.4 0.2 0.8 0.6 1l8.6 3.8 3.8 8.6c0.2 0.4 0.5 0.6 0.9 0.6 0 0 0 0 0 0 0.4 0 0.8-0.3 0.9-0.7l7-20c0.2-0.1 0.2-0.2 0.2-0.4 0 0.1 0 0.1 0 0zM18.2 4.4l-7.4 7.4-6.1-2.7 13.5-4.7zM14.9 19.3l-2.7-6.1 7.4-7.4-4.7 13.5z"></path>
        </symbol>
        <symbol id="icon-trash" viewBox="0 0 24 24">
            <title>Trash</title>
            <path d="M21 5h-4v-1c0-1.7-1.3-3-3-3h-4c-1.7 0-3 1.3-3 3v1h-4c-0.6 0-1 0.4-1 1s0.4 1 1 1h1v13c0 1.7 1.3 3 3 3h10c1.7 0 3-1.3 3-3v-13h1c0.6 0 1-0.4 1-1s-0.4-1-1-1zM9 4c0-0.6 0.4-1 1-1h4c0.6 0 1 0.4 1 1v1h-6v-1zM18 20c0 0.6-0.4 1-1 1h-10c-0.6 0-1-0.4-1-1v-13h12v13z"></path>
        </symbol>
        <symbol id="icon-edit" viewBox="0 0 24 24">
            <title>edit</title>
            <path d="M20 13.7c-0.6 0-1 0.4-1 1v5.3c0 0.6-0.4 1-1 1h-14c-0.6 0-1-0.4-1-1v-14c0-0.6 0.4-1 1-1h5.3c0.6 0 1-0.4 1-1s-0.4-1-1-1h-5.3c-1.7 0-3 1.3-3 3v14c0 1.7 1.3 3 3 3h14c1.7 0 3-1.3 3-3v-5.3c0-0.6-0.4-1-1-1z"></path>
            <path d="M22.7 5.3l-4-4c-0.4-0.4-1-0.4-1.4 0l-10 10c-0.2 0.2-0.3 0.4-0.3 0.7v4c0 0.6 0.4 1 1 1h4c0.3 0 0.5-0.1 0.7-0.3l10-10c0.4-0.4 0.4-1 0-1.4zM11.6 15h-2.6v-2.6l9-9 2.6 2.6-9 9z"></path>
        </symbol>

    </defs>
</svg>